HIERARCHY
ROOT Hips
{
	OFFSET -0.001795 -0.223333 0.028219
	CHANNELS 6 Xposition Yposition Zposition Zrotation Yrotation Xrotation 
	JOINT LeftUpLeg
	{
		OFFSET 0.069520 -0.091406 -0.006815
		CHANNELS 3 Zrotation Yrotation Xrotation
		JOINT LeftLeg
		{
			OFFSET 0.034277 -0.375199 -0.004496
			CHANNELS 3 Zrotation Yrotation Xrotation
			JOINT LeftFoot
			{
				OFFSET -0.013596 -0.397961 -0.043693
				CHANNELS 3 Zrotation Yrotation Xrotation
				JOINT LeftToe
				{
					OFFSET 0.026358 -0.055791 0.119288
					CHANNELS 3 Zrotation Yrotation Xrotation
					End Site
					{
						OFFSET 0.000000 0.000000 0.000000
					}
				}
			}
		}
	}
	JOINT RightUpLeg
	{
		OFFSET -0.067670 -0.090522 -0.004320
		CHANNELS 3 Zrotation Yrotation Xrotation
		JOINT RightLeg
		{
			OFFSET -0.038290 -0.382569 -0.008850
			CHANNELS 3 Zrotation Yrotation Xrotation
			JOINT RightFoot
			{
				OFFSET 0.015774 -0.398415 -0.042312
				CHANNELS 3 Zrotation Yrotation Xrotation
				JOINT RightToe
				{
					OFFSET -0.025372 -0.048144 0.123348
					CHANNELS 3 Zrotation Yrotation Xrotation
					End Site
					{
						OFFSET 0.000000 0.000000 0.000000
					}
				}
			}
		}
	}
	JOINT Spine
	{
		OFFSET -0.002533 0.108963 -0.026696
		CHANNELS 3 Zrotation Yrotation Xrotation
		JOINT Spine1
		{
			OFFSET 0.005487 0.135180 0.001092
			CHANNELS 3 Zrotation Yrotation Xrotation
			JOINT Spine2
			{
				OFFSET 0.001457 0.052922 0.025425
				CHANNELS 3 Zrotation Yrotation Xrotation
				JOINT Neck
				{
					OFFSET -0.002778 0.213870 -0.042857
					CHANNELS 3 Zrotation Yrotation Xrotation
					JOINT Head
					{
						OFFSET 0.005152 0.064970 0.051349
						CHANNELS 3 Zrotation Yrotation Xrotation
						End Site
						{
							OFFSET 0.000000 0.000000 0.000000
						}
					}
				}
				JOINT LeftShoulder
				{
					OFFSET 0.078845 0.121749 -0.034090
					CHANNELS 3 Zrotation Yrotation Xrotation
					JOINT LeftArm
					{
						OFFSET 0.090977 0.030469 -0.008868
						CHANNELS 3 Zrotation Yrotation Xrotation
						JOINT LeftForeArm
						{
							OFFSET 0.259612 -0.012772 -0.027456
							CHANNELS 3 Zrotation Yrotation Xrotation
							JOINT LeftHand
							{
								OFFSET 0.249234 0.008986 -0.001171
								CHANNELS 3 Zrotation Yrotation Xrotation
								End Site
								{
									OFFSET 0.000000 0.000000 0.000000
								}
							}
						}
					}
				}
				JOINT RightShoulder
				{
					OFFSET -0.081759 0.118833 -0.038615
					CHANNELS 3 Zrotation Yrotation Xrotation
					JOINT RightArm
					{
						OFFSET -0.096012 0.032551 -0.009143
						CHANNELS 3 Zrotation Yrotation Xrotation
						JOINT RightForeArm
						{
							OFFSET -0.253742 -0.013329 -0.021401
							CHANNELS 3 Zrotation Yrotation Xrotation
							JOINT RightHand
							{
								OFFSET -0.255298 0.007772 -0.005559
								CHANNELS 3 Zrotation Yrotation Xrotation
								End Site
								{
									OFFSET 0.000000 0.000000 0.000000
								}
							}
						}
					}
				}
			}
		}
	}
}
MOTION
Frames: 16
Frame Time: 0.050000
0.007722 0.948606 -0.025947 -1.535350 2.015067 -2.588731 8.658358 0.016552 10.524385 -4.976861 0.426472 -8.892077 5.478778 14.159398 15.879845 0.000000 0.000000 0.000000 -5.226184 -0.431202 8.485705 2.068056 -0.393250 -7.317386 -4.089078 -13.316696 18.069660 0.000000 0.000000 0.000000 -3.793828 -0.018819 1.682623 4.897855 -0.589344 -23.737870 1.497587 0.939801 27.353170 1.877884 1.067272 -29.035475 0.000000 0.000000 0.000000 -11.671944 -7.246049 2.456046 -54.698315 -37.775502 9.093577 -18.717758 -86.886778 24.216882 0.000000 0.000000 0.000000 -6.802344 21.052876 5.894354 41.111115 60.242658 16.753491 -89.330342 63.056112 -55.361527 0.000000 0.000000 0.000000 
0.007743 0.948689 -0.026609 -1.528203 2.744386 -2.293739 8.490934 -0.007234 10.061405 -4.692256 0.407989 -8.738313 5.295458 13.937462 15.761720 0.000000 0.000000 0.000000 -5.134430 -0.448645 8.391488 1.925068 -0.407255 -7.916675 -4.591181 -14.101186 18.672326 0.000000 0.000000 0.000000 -4.210688 -0.009590 1.370111 5.027065 -0.624437 -23.499349 1.288820 0.954673 27.111616 2.589645 0.792842 -29.431711 0.000000 0.000000 0.000000 -11.657547 -6.780772 2.153533 -56.052103 -35.425647 8.187085 -41.521460 -83.305730 43.328512 0.000000 0.000000 0.000000 -7.235560 21.028772 5.801936 41.641856 61.089689 17.651366 -88.643117 61.456501 -53.081480 0.000000 0.000000 0.000000 
0.007827 0.948892 -0.027204 -1.556228 2.887680 -1.763976 8.318989 -0.013111 9.305910 -4.434244 0.400470 -8.498266 5.080476 13.581949 15.399032 0.000000 0.000000 0.000000 -5.123474 -0.425756 8.054451 1.850855 -0.413914 -8.249350 -4.397693 -13.791987 18.986430 0.000000 0.000000 0.000000 -4.303743 -0.000496 1.082609 5.035503 -0.600746 -23.818993 1.315171 0.927707 27.583116 2.623867 0.818160 -29.867923 0.000000 0.000000 0.000000 -12.280618 -6.274435 1.902723 -56.450042 -31.633701 6.210114 -50.195282 -76.341429 46.077358 0.000000 0.000000 0.000000 -7.458744 20.921642 5.720653 43.428250 62.825635 19.569792 -90.900821 58.208036 -51.467679 0.000000 0.000000 0.000000 
0.007955 0.948580 -0.027738 -1.471008 3.294565 -1.096391 8.343187 -0.049170 8.683388 -4.392888 0.391992 -8.569278 4.686085 13.028830 15.317696 0.000000 0.000000 0.000000 -4.940590 -0.411022 7.576958 1.085913 -0.398449 -8.640062 -4.357826 -13.687156 19.269638 0.000000 0.000000 0.000000 -4.482200 0.010136 0.860447 5.277874 -0.680935 -23.375759 0.937956 0.861128 27.098137 2.827733 0.744783 -29.802653 0.000000 0.000000 0.000000 -12.695919 -5.544906 1.496101 -56.477753 -27.324804 4.033180 -52.670894 -68.707615 42.338808 0.000000 0.000000 0.000000 -7.069013 20.863744 5.800635 45.312828 64.069358 21.470314 -93.480960 55.480221 -50.551069 0.000000 0.000000 0.000000 
0.008139 0.948667 -0.028314 -1.607917 3.068323 -0.700838 8.339536 -0.052495 8.348289 -4.268010 0.392422 -8.410093 4.562150 12.725848 14.744171 0.000000 0.000000 0.000000 -4.780669 -0.368638 6.888958 0.875083 -0.376022 -8.278857 -4.296489 -13.592847 19.106948 0.000000 0.000000 0.000000 -4.883031 0.020701 0.972611 5.944054 -0.843340 -23.497260 1.081195 1.034855 27.119567 3.143044 0.598308 -29.977822 0.000000 0.000000 0.000000 -13.656004 -5.067379 1.224682 -56.191993 -22.978637 1.805170 -55.817201 -61.868170 39.731148 0.000000 0.000000 0.000000 -6.696820 20.494820 5.775284 47.634421 64.627302 23.226730 -94.914555 53.256345 -49.198952 0.000000 0.000000 0.000000 
0.008348 0.948458 -0.028949 -1.705350 3.301658 -0.319806 8.784502 -0.113600 8.079179 -4.344552 0.388612 -8.597852 4.549550 12.686481 14.538717 0.000000 0.000000 0.000000 -4.679695 -0.342859 6.385935 0.486107 -0.348300 -7.943718 -3.890953 -12.838699 18.643067 0.000000 0.000000 0.000000 -5.047300 0.028147 0.981605 6.296348 -0.915626 -23.651849 0.830308 0.793559 27.276914 3.208905 0.550888 -30.041351 0.000000 0.000000 0.000000 -14.373214 -4.536756 0.950535 -55.659742 -20.183598 0.380595 -58.931877 -58.658791 39.604578 0.000000 0.000000 0.000000 -5.288547 20.393431 6.025213 49.269539 63.446219 23.429227 -97.753679 53.624456 -51.589628 0.000000 0.000000 0.000000 
0.008641 0.948563 -0.029459 -1.831754 3.372682 0.063048 8.851296 -0.132059 7.881009 -4.425927 0.386168 -8.899180 4.542902 12.676834 14.522260 0.000000 0.000000 0.000000 -4.547715 -0.322234 5.988284 0.567017 -0.350824 -7.907205 -3.803576 -12.620917 18.172904 0.000000 0.000000 0.000000 -5.225105 0.034703 0.577837 6.544225 -0.998657 -23.343866 0.990798 0.637145 27.079577 2.465237 0.896946 -29.587159 0.000000 0.000000 0.000000 -14.332233 -3.832761 0.621216 -54.542681 -19.700425 0.120077 -63.985982 -60.923281 44.986691 0.000000 0.000000 0.000000 -4.016707 19.713173 6.079022 51.922563 60.374440 23.084646 -100.242735 57.665014 -57.831857 0.000000 0.000000 0.000000 
0.008967 0.948793 -0.030053 -1.949559 3.416916 -0.026931 9.020586 -0.147502 8.111167 -4.529706 0.383568 -9.268412 4.643732 12.753213 14.088152 0.000000 0.000000 0.000000 -4.517905 -0.306527 5.698205 0.650467 -0.327689 -7.195437 -3.540022 -12.118720 17.732853 0.000000 0.000000 0.000000 -5.280012 0.033468 0.590024 6.127902 -0.877233 -23.551869 1.312553 0.281140 27.348583 1.675080 1.207137 -28.816806 0.000000 0.000000 0.000000 -14.287835 -3.929968 0.743110 -53.203826 -21.658613 0.919052 -70.201846 -67.384084 55.552098 0.000000 0.000000 0.000000 -1.760573 19.310433 6.358908 50.920805 54.663597 18.915511 -100.716530 64.472327 -65.710567 0.000000 0.000000 0.000000 
0.009295 0.949205 -0.030638 -2.102853 3.798948 -0.203889 9.212949 -0.177833 8.317846 -4.542481 0.372865 -9.625101 4.401585 12.505529 14.512524 0.000000 0.000000 0.000000 -4.155401 -0.356820 5.955959 0.468390 -0.328491 -7.407070 -3.433375 -11.882614 17.712963 0.000000 0.000000 0.000000 -5.141944 0.029210 0.891106 5.688894 -0.779991 -23.285739 1.411922 -0.020965 26.819777 0.779077 1.650137 -28.254790 0.000000 0.000000 0.000000 -14.802073 -3.816530 0.652087 -52.131799 -26.390350 3.054533 -81.291063 -76.141086 73.835416 0.000000 0.000000 0.000000 0.658750 18.786866 6.612344 51.489151 48.426105 15.623870 -95.113467 72.403066 -68.935381 0.000000 0.000000 0.000000 
0.009415 0.949427 -0.031273 -2.302655 4.515792 -0.662382 9.628484 -0.242233 8.752428 -4.949455 0.362659 -9.775627 4.137066 12.123441 14.221263 0.000000 0.000000 0.000000 -4.088530 -0.407514 6.347021 0.814835 -0.331913 -6.957685 -3.691548 -12.175559 17.373888 0.000000 0.000000 0.000000 -5.068410 0.020024 1.386633 5.442515 -0.702113 -23.376511 1.446160 -0.841074 26.828673 -0.334834 2.174379 -27.863629 0.000000 0.000000 0.000000 -14.183475 -4.238395 0.967824 -52.160088 -33.514112 6.400908 -136.946499 -86.001329 141.100947 0.000000 0.000000 0.000000 3.000494 17.948097 6.682301 51.863500 42.737710 12.544216 -74.460624 79.898511 -57.330021 0.000000 0.000000 0.000000 
0.009267 0.949736 -0.031901 -2.498037 5.283924 -1.041620 10.049939 -0.316237 9.024364 -4.896785 0.346906 -9.814753 3.974552 12.132211 15.108509 0.000000 0.000000 0.000000 -3.821699 -0.474654 6.757336 0.741192 -0.328694 -6.900589 -3.676734 -12.091136 17.771300 0.000000 0.000000 0.000000 -4.907445 0.010007 1.801240 5.036554 -0.612653 -22.970658 1.386858 -1.321330 26.448525 -1.152275 2.622979 -27.844072 0.000000 0.000000 0.000000 -13.053518 -4.994792 1.358958 -52.768074 -41.518261 10.606589 120.050255 -79.573017 -103.420233 0.000000 0.000000 0.000000 5.253763 17.377054 6.821216 52.619705 38.155499 10.367228 -34.700638 81.294656 -23.085617 0.000000 0.000000 0.000000 
0.008884 0.949659 -0.032415 -2.631388 5.591756 -1.537245 10.330221 -0.354600 9.292768 -5.267103 0.357300 -9.226979 3.929322 11.939652 14.328305 0.000000 0.000000 0.000000 -3.723695 -0.532705 7.261834 0.925471 -0.331557 -6.651392 -3.869889 -12.329823 17.294020 0.000000 0.000000 0.000000 -4.847731 0.000186 2.311027 5.126922 -0.633725 -22.975114 1.069158 -1.826760 26.436606 -2.204378 3.157143 -28.020263 0.000000 0.000000 0.000000 -11.814774 -5.446605 1.660979 -52.833747 -47.934051 14.073397 112.078872 -70.437953 -85.333646 0.000000 0.000000 0.000000 7.709441 16.933662 6.974363 52.627348 35.056735 8.677129 -9.016755 80.312537 -1.179941 0.000000 0.000000 0.000000 
0.008312 0.949097 -0.032913 -2.714166 5.536009 -1.476521 10.512916 -0.373419 9.216612 -5.662582 0.362148 -9.270365 4.151595 12.324432 14.658839 0.000000 0.000000 0.000000 -3.705010 -0.535093 7.292085 1.132056 -0.346363 -6.721902 -3.848865 -12.247121 16.810094 0.000000 0.000000 0.000000 -4.702353 -0.000834 2.222555 5.130562 -0.628545 -23.072665 0.804532 -2.360149 26.505525 -2.362201 3.156570 -28.141498 0.000000 0.000000 0.000000 -10.673932 -5.995439 2.017580 -52.013677 -52.036686 16.067812 109.553613 -64.792228 -76.404015 0.000000 0.000000 0.000000 8.522517 16.545808 6.859393 53.234519 33.656754 8.049498 -1.225924 81.661056 5.376859 0.000000 0.000000 0.000000 
0.007885 0.948650 -0.033346 -2.620284 4.553002 -1.504801 10.371367 -0.311915 9.358920 -5.994213 0.392841 -9.060745 4.979405 13.518791 15.092203 0.000000 0.000000 0.000000 -3.805186 -0.515581 7.370542 0.950908 -0.339411 -6.942561 -3.269100 -11.412657 16.987985 0.000000 0.000000 0.000000 -4.707866 0.001684 1.910830 5.300746 -0.711256 -22.747407 0.353459 -2.090856 26.558348 -2.383193 3.111413 -27.862650 0.000000 0.000000 0.000000 -9.926807 -5.909161 2.039075 -50.298361 -52.262578 15.476078 106.311059 -65.203917 -73.602334 0.000000 0.000000 0.000000 8.355558 16.608136 6.808315 52.791280 35.471952 8.821374 -26.893389 82.818662 -17.210313 0.000000 0.000000 0.000000 
0.007451 0.948518 -0.033912 -2.283331 3.665677 -1.690753 10.399583 -0.270525 9.792603 -6.753568 0.418635 -9.331864 5.538603 14.344034 15.723262 0.000000 0.000000 0.000000 -4.564735 -0.476759 7.846147 1.283069 -0.364332 -7.273018 -2.803094 -10.725880 16.796632 0.000000 0.000000 0.000000 -4.884632 0.003109 1.517640 5.281530 -0.723311 -22.734812 0.393585 -1.901515 27.060667 -1.962292 2.819090 -27.844728 0.000000 0.000000 0.000000 -9.974360 -6.026911 2.160946 -48.433055 -49.237863 13.099876 102.165098 -70.116764 -74.667618 0.000000 0.000000 0.000000 7.739028 16.128625 6.481255 52.751646 38.649769 10.318645 -65.201659 83.755033 -52.569245 0.000000 0.000000 0.000000 
0.007129 0.948692 -0.034484 -1.849915 2.901541 -1.541082 9.825950 -0.173029 9.747444 -6.570479 0.435447 -9.257073 5.659774 14.575041 16.645415 0.000000 0.000000 0.000000 -4.806262 -0.443810 7.951103 1.002129 -0.370492 -7.992961 -2.722213 -10.806253 17.431293 0.000000 0.000000 0.000000 -5.097930 0.008678 0.992015 5.453888 -0.813746 -22.250793 0.249027 -1.291335 27.224283 -1.630133 2.650168 -27.616023 0.000000 0.000000 0.000000 -10.587215 -5.203368 1.787164 -47.591189 -44.321922 10.347524 94.276758 -78.777224 -75.965225 0.000000 0.000000 0.000000 5.821376 15.627547 6.062396 54.082866 43.278101 13.220348 -103.720349 79.309908 -84.971339 0.000000 0.000000 0.000000 
